<svg width="160" height="48" viewBox="0 0 120 31" fill="none" xmlns="http://www.w3.org/2000/svg">
<g clip-path="url(#clip0_7277_1178)">
<path d="M54.8014 16.3062C54.829 16.2751 54.8541 16.2428 54.878 16.2092C54.8804 16.2056 54.8828 16.2009 54.8864 16.1973C54.908 16.1649 54.9295 16.1326 54.9475 16.1003C54.9511 16.0931 54.9547 16.0859 54.9594 16.0787C54.9762 16.0488 54.9918 16.0177 55.0049 15.9878C55.0097 15.977 55.0145 15.965 55.0193 15.9542C55.0313 15.9267 55.042 15.8992 55.0516 15.8704C55.0564 15.8561 55.0612 15.8417 55.0648 15.8261C55.072 15.801 55.0792 15.7747 55.0863 15.7495C55.0899 15.7328 55.0935 15.716 55.0971 15.6981C55.1019 15.6741 55.1067 15.6502 55.1091 15.625C55.1115 15.6071 55.1127 15.5879 55.1151 15.57C55.1175 15.546 55.1199 15.5233 55.1199 15.4993C55.1199 15.4802 55.1199 15.461 55.1199 15.4419C55.1199 15.4191 55.1199 15.3964 55.1187 15.3724C55.1187 15.3533 55.1151 15.3329 55.1139 15.3138C55.1115 15.2922 55.1091 15.2695 55.1055 15.2479C55.1019 15.2276 55.0983 15.2072 55.0947 15.1857C55.0911 15.1653 55.0863 15.145 55.0816 15.1246C55.0756 15.1019 55.0696 15.0803 55.0624 15.0588C55.0564 15.0408 55.0516 15.0229 55.0456 15.0049C55.0373 14.9798 55.0265 14.9558 55.0169 14.9319C55.0109 14.9175 55.0049 14.9032 54.9978 14.8888C54.9846 14.8613 54.9702 14.8349 54.9559 14.8074C54.9499 14.7966 54.9451 14.787 54.9391 14.7763C54.9211 14.7463 54.902 14.7176 54.8816 14.6889C54.8768 14.6817 54.8721 14.6757 54.8673 14.6685C54.8445 14.6374 54.8206 14.6087 54.7954 14.5799C54.7918 14.5763 54.7895 14.5727 54.7871 14.5692L54.7763 14.5572C54.7763 14.5572 54.7655 14.5452 54.7607 14.5392L45.532 4.0475C45.0471 3.5028 44.2115 3.45491 43.6668 3.93976C43.1221 4.4246 43.0742 5.2602 43.5591 5.8049L45.7546 8.4003L52.0372 15.455C52.0372 15.455 52.0396 15.461 52.0372 15.4634L43.5076 24.7796C43.0312 25.3278 43.0359 26.1754 43.5723 26.6662C44.1229 27.1702 44.9753 27.1188 45.4613 26.5585L54.7703 16.3457C54.7775 16.3373 54.7847 16.3289 54.7918 16.3206L54.7978 16.3146C54.7978 16.3146 54.8014 16.311 54.8026 16.3086L54.8014 16.3062Z" fill="#FAA53D"/>
<path d="M64.1702 6.91588C63.6351 6.42026 62.7995 6.45139 62.3039 6.98651L58.6419 10.9359L49.2958 0.442946C48.8109 -0.101753 47.9753 -0.149638 47.4306 0.335203C46.886 0.820044 46.8381 1.65565 47.3229 2.20035L57.6375 13.7815C58.1223 14.3262 58.9579 14.374 59.5026 13.8892C59.5421 13.8533 59.5792 13.8162 59.6127 13.7767L64.2421 8.78341C64.7377 8.24829 64.7066 7.41269 64.1714 6.91707L64.1702 6.91588Z" fill="#0055CC"/>
<path d="M58.7987 5.82048C59.8367 5.82048 60.6782 4.97899 60.6782 3.94097C60.6782 2.90295 59.8367 2.06146 58.7987 2.06146C57.7606 2.06146 56.9192 2.90295 56.9192 3.94097C56.9192 4.97899 57.7606 5.82048 58.7987 5.82048Z" fill="#0055CC"/>
<path d="M0.478851 20.6841V9.88116H3.37832V20.6841H0.478851Z" fill="#0055CC"/>
<path d="M6.07188 9.88119H8.84924L8.93065 12.904L8.05195 13.0464C8.29736 12.4886 8.66489 11.951 9.15452 11.4327C9.64415 10.9155 10.2439 10.4905 10.9514 10.1565C11.6589 9.82373 12.4694 9.65613 13.3816 9.65613C14.4842 9.65613 15.4096 9.86443 16.159 10.2786C16.9072 10.694 17.4758 11.2555 17.8637 11.963C18.2516 12.6705 18.4455 13.4535 18.4455 14.3118V20.683H15.546V14.9235C15.546 14.3788 15.4096 13.8988 15.1378 13.4834C14.8649 13.068 14.4973 12.7447 14.0352 12.5137C13.572 12.2827 13.0476 12.1665 12.4622 12.1665C11.9175 12.1665 11.4303 12.2587 11.0017 12.4419C10.5731 12.6262 10.208 12.8681 9.90871 13.1673C9.60943 13.4666 9.37838 13.7875 9.21437 14.1274C9.05036 14.4674 8.96896 14.7942 8.96896 15.1079V20.683H6.06949V9.87999L6.07188 9.88119Z" fill="#0055CC"/>
<path d="M26.9859 20.8877C25.7193 20.8877 24.624 20.6494 23.6986 20.173C22.772 19.6965 22.0573 19.0369 21.5545 18.1917C21.0505 17.3477 20.7991 16.3745 20.7991 15.2719C20.7991 14.1693 21.0673 13.2164 21.606 12.3724C22.1435 11.5284 22.8929 10.8652 23.8518 10.3816C24.8119 9.89913 25.9181 9.65611 27.1703 9.65611C27.9329 9.65611 28.6404 9.74111 29.294 9.9111C29.9476 10.0811 30.5163 10.3062 30.9987 10.5851C31.4812 10.864 31.8666 11.1669 32.1528 11.4937C32.4389 11.8205 32.5945 12.1474 32.622 12.4742L31.887 12.6166V5.57147H34.8068V20.6842H32.0498L31.9277 17.7847L32.4999 18.0097C32.4724 18.3366 32.3096 18.6706 32.0103 19.0106C31.711 19.3505 31.3052 19.6642 30.7952 19.9503C30.2852 20.2364 29.7058 20.4651 29.0594 20.6351C28.4129 20.8051 27.7222 20.8901 26.9859 20.8901V20.8877ZM27.8227 18.3557C28.6667 18.3557 29.3982 18.2228 30.0183 17.9571C30.6372 17.6913 31.1208 17.3274 31.468 16.8641C31.8152 16.4008 31.9888 15.8705 31.9888 15.2707C31.9888 14.6709 31.8152 14.1645 31.468 13.7084C31.1208 13.2523 30.6372 12.892 30.0183 12.6262C29.3982 12.3604 28.6667 12.2276 27.8227 12.2276C26.9787 12.2276 26.288 12.3604 25.6679 12.6262C25.0477 12.892 24.5653 13.2523 24.2181 13.7084C23.871 14.1645 23.6974 14.6853 23.6974 15.2707C23.6974 15.8561 23.871 16.4008 24.2181 16.8641C24.5653 17.3274 25.0477 17.6913 25.6679 17.9571C26.2868 18.2228 27.0051 18.3557 27.8227 18.3557Z" fill="#0055CC"/>
<path d="M39.0746 7.64971C38.5168 7.64971 38.081 7.51084 37.7673 7.23071C37.4537 6.95178 37.2981 6.56031 37.2981 6.05632C37.2981 5.59422 37.4585 5.21593 37.7781 4.92263C38.0978 4.63052 38.5299 4.48328 39.0746 4.48328C39.6193 4.48328 40.0682 4.62334 40.3819 4.90227C40.6943 5.18121 40.8512 5.56549 40.8512 6.05632C40.8512 6.51961 40.6908 6.9003 40.3711 7.19958C40.0515 7.49887 39.6181 7.64851 39.0746 7.64851V7.64971ZM37.6452 20.8625V10.0595H40.5447V20.8625H37.6452Z" fill="#0055CC"/>
<path d="M67.5773 25.1351V9.8189H70.375L70.4564 12.2694L69.9261 12.0863C70.035 11.6912 70.3379 11.3105 70.8347 10.943C71.3315 10.5755 71.9612 10.2666 72.7238 10.014C73.4863 9.76264 74.3172 9.63574 75.215 9.63574C76.4816 9.63574 77.5877 9.87397 78.5335 10.3504C79.4792 10.8269 80.2143 11.4841 80.7386 12.3209C81.263 13.1577 81.5251 14.1286 81.5251 15.2312C81.5251 16.3337 81.2594 17.2867 80.729 18.1306C80.1975 18.9746 79.4589 19.6354 78.5131 20.1119C77.5662 20.5884 76.4672 20.8266 75.215 20.8266C74.2621 20.8266 73.4002 20.6937 72.6316 20.4291C71.8618 20.1634 71.2333 19.8306 70.7425 19.4283C70.2529 19.0273 69.9464 18.6358 69.8231 18.2539L70.4971 17.9678V25.1363H67.5773V25.1351ZM74.5614 18.3342C75.391 18.3342 76.1165 18.2013 76.7366 17.9355C77.3555 17.6697 77.8391 17.3022 78.1863 16.8329C78.5335 16.3637 78.7071 15.8285 78.7071 15.23C78.7071 14.6314 78.5299 14.0963 78.1767 13.627C77.8224 13.1577 77.3399 12.7926 76.727 12.534C76.1141 12.2754 75.3922 12.1461 74.5626 12.1461C73.733 12.1461 73.0207 12.279 72.3874 12.5448C71.7541 12.8106 71.2645 13.1745 70.9173 13.6378C70.5701 14.1011 70.3965 14.6314 70.3965 15.2312C70.3965 15.8309 70.5701 16.3649 70.9173 16.8341C71.2645 17.3034 71.7541 17.6709 72.3874 17.9367C73.0207 18.2025 73.7449 18.3354 74.5626 18.3354L74.5614 18.3342Z" fill="#0055CC"/>
<path d="M90.9969 20.847C89.5125 20.847 88.2052 20.6087 87.0763 20.1323C85.9462 19.6558 85.0711 18.9986 84.4522 18.1618C83.8321 17.325 83.5232 16.3745 83.5232 15.3126C83.5232 14.4136 83.7099 13.6151 84.0847 12.9135C84.4594 12.212 84.9801 11.617 85.6469 11.1262C86.3137 10.6366 87.0763 10.2583 87.9346 9.99252C88.793 9.72675 89.698 9.59387 90.651 9.59387C91.6039 9.59387 92.4682 9.72675 93.2859 9.99252C94.1023 10.2583 94.8182 10.6294 95.4299 11.1059C96.0429 11.5823 96.5193 12.151 96.8593 12.8106C97.1993 13.4714 97.3561 14.1957 97.3286 14.9858L97.3082 16.0273H85.7702L85.3009 14.1071H94.92L94.5931 14.4746V14.0257C94.5381 13.6306 94.3238 13.2835 93.9503 12.9842C93.5756 12.6849 93.1027 12.4467 92.5305 12.2695C91.9582 12.0923 91.3465 12.0037 90.6929 12.0037C89.8896 12.0037 89.1509 12.1055 88.477 12.3102C87.803 12.5137 87.2655 12.8405 86.8632 13.2906C86.461 13.7396 86.261 14.3393 86.261 15.0875C86.261 15.728 86.4789 16.2931 86.9147 16.7827C87.3504 17.2723 87.9634 17.6614 88.7523 17.9463C89.5412 18.2324 90.4606 18.3749 91.5093 18.3749C92.558 18.3749 93.4152 18.2528 94.082 18.0074C94.7488 17.762 95.2599 17.5453 95.6131 17.3537L96.8593 19.2727C96.3829 19.572 95.831 19.845 95.2049 20.0892C94.5788 20.3346 93.9084 20.5214 93.1937 20.6506C92.479 20.7799 91.7463 20.8446 90.9981 20.8446L90.9969 20.847Z" fill="#0055CC"/>
<path d="M99.8462 20.6422V9.83926H102.644L102.746 13.8413L101.847 13.8209C102.064 13.0452 102.432 12.3377 102.949 11.6972C103.466 11.0579 104.072 10.5504 104.766 10.1757C105.461 9.80095 106.183 9.6142 106.931 9.6142C107.435 9.6142 107.93 9.65729 108.412 9.77701C108.852 9.88714 108.8 9.89313 108.8 10.0224L108.809 13.2906C108.523 13.1003 108.139 12.947 107.655 12.8309C107.171 12.7148 106.712 12.6573 106.277 12.6573C105.705 12.6573 105.201 12.7459 104.766 12.9231C104.331 13.1003 103.963 13.3349 103.664 13.627C103.365 13.9203 103.139 14.2435 102.99 14.5967C102.84 14.951 102.765 15.3042 102.765 15.6586V20.641H99.845L99.8462 20.6422Z" fill="#0055CC"/>
<path d="M111.247 12.4323V9.83928H120V12.4323H111.247ZM113.659 20.6423V6.48969H116.558V20.6423H113.659Z" fill="#0055CC"/>
<path d="M64.1702 23.8327C63.6351 24.3283 62.7995 24.2972 62.3039 23.762L58.6419 19.8127L49.2958 30.3068C48.8109 30.8515 47.9753 30.8994 47.4306 30.4145C46.886 29.9297 46.8381 29.0941 47.3229 28.5494L57.6375 16.9683C58.1223 16.4236 58.9579 16.3757 59.5026 16.8605C59.5421 16.8964 59.5792 16.9336 59.6127 16.9731L64.2421 21.9663C64.7377 22.5015 64.7066 23.3371 64.1714 23.8327H64.1702Z" fill="#0055CC"/>
<path d="M58.7987 28.6883C59.8367 28.6883 60.6782 27.8468 60.6782 26.8088C60.6782 25.7707 59.8367 24.9293 58.7987 24.9293C57.7606 24.9293 56.9192 25.7707 56.9192 26.8088C56.9192 27.8468 57.7606 28.6883 58.7987 28.6883Z" fill="#0055CC"/>
<path d="M1.87951 7.72514C2.91753 7.72514 3.75902 6.88366 3.75902 5.84563C3.75902 4.80761 2.91753 3.96613 1.87951 3.96613C0.841484 3.96613 0 4.80761 0 5.84563C0 6.88366 0.841484 7.72514 1.87951 7.72514Z" fill="#FAA53D"/>
</g>
<defs>
<clipPath id="clip0_7277_1178">
<rect width="120" height="30.7497" fill="white"/>
</clipPath>
</defs>
</svg>
